<?xml version="1.0" encoding="UTF-8" standalone="no"?>
<svg
   xmlns:dc="http://purl.org/dc/elements/1.1/"
   xmlns:cc="http://creativecommons.org/ns#"
   xmlns:rdf="http://www.w3.org/1999/02/22-rdf-syntax-ns#"
   xmlns:svg="http://www.w3.org/2000/svg"
   xmlns="http://www.w3.org/2000/svg"
   xmlns:sodipodi="http://sodipodi.sourceforge.net/DTD/sodipodi-0.dtd"
   xmlns:inkscape="http://www.inkscape.org/namespaces/inkscape"
   xml:space="preserve"
   viewBox="0 0 64 64"
   version="1.1"
   id="svg14"
   sodipodi:docname="Extension.svg"
   inkscape:version="1.0.2 (e86c8708, 2021-01-15)"><metadata
     id="metadata20"><rdf:RDF><cc:Work
         rdf:about=""><dc:format>image/svg+xml</dc:format><dc:type
           rdf:resource="http://purl.org/dc/dcmitype/StillImage" /><dc:title></dc:title></cc:Work></rdf:RDF></metadata><defs
     id="defs18" /><sodipodi:namedview
     pagecolor="#ffffff"
     bordercolor="#666666"
     borderopacity="1"
     objecttolerance="10"
     gridtolerance="10"
     guidetolerance="10"
     inkscape:pageopacity="0"
     inkscape:pageshadow="2"
     inkscape:window-width="1511"
     inkscape:window-height="885"
     id="namedview16"
     showgrid="false"
     inkscape:zoom="11.484375"
     inkscape:cx="27.994558"
     inkscape:cy="28.255782"
     inkscape:window-x="161"
     inkscape:window-y="44"
     inkscape:window-maximized="0"
     inkscape:current-layer="svg14" /><path
     fill="#D03F38"
     d="M0 0h64v64H0z"
     id="path10"
     style="fill:#f7ac2d;fill-opacity:1" /><path
     fill="#FFF"
     d="M22.054 47.761c-.462.462-1.124.743-1.806.743s-1.345-.281-1.827-.743l-2.128-2.17a2.521 2.521 0 0 1-.763-1.808c0-.683.281-1.346.763-1.828l13.669-13.682a10.36 10.36 0 0 0 5.781 5.786L22.054 47.761zm-.522-6.549c-.702 0-1.285.583-1.285 1.286 0 .703.582 1.286 1.285 1.286s1.285-.583 1.285-1.286c0-.704-.582-1.286-1.285-1.286zm26.475-13.763c-1.265 3.576-4.697 6.047-8.491 6.047-4.958 0-8.992-4.038-8.992-9.001s4.034-9.001 8.992-9.001c1.465 0 3.372.442 4.596 1.266.201.141.321.321.321.563 0 .221-.141.442-.321.563l-5.881 3.395v4.5l3.874 2.15c.662-.382 5.319-3.315 5.721-3.315.401 0 .642.301.642.703.001.664-.24 1.488-.461 2.13z"
     id="path12" /></svg>
